PathFileType	4	(X/Y/Z)	paretic_post_fc0300a5.trc
DataRate	CameraRate	NumFrames	NumMarkers	Units	OrigDataRate	OrigDataStartFrame	OrigNumFrames
56.76	56.76	16	11	cm	56.76	109	433
Frame#	Time	NOSE			LEFT_SHOULDER			RIGHT_SHOULDER			LEFT_ELBOW			RIGHT_ELBOW			LEFT_WRIST			RIGHT_WRIST			LEFT_HIP			RIGHT_HIP			LEFT_INDEX			RIGHT_INDEX		
		X1	Y1	Z1	X2	Y2	Z2	X3	Y3	Z3	X4	Y4	Z4	X5	Y5	Z5	X6	Y6	Z6	X7	Y7	Z7	X8	Y8	Z8	X9	Y9	Z9	X10	Y10	Z10	X11	Y11	Z11
144	2.536935483870968	5.533912	-63.422147	-29.885029	10.355461	-50.928588	11.097713	-25.420826	-59.459773	-3.254583	16.816096	-22.421095	12.434242	-37.886779	-20.461196	-14.233160	32.035783	-6.991198	4.858190	-24.565865	-6.009585	-30.389540	10.534506	-2.395657	11.344124	-10.163719	1.827100	-10.905716	33.726663	-5.223802	0.352253	-9.931583	-12.335115	-40.302241
145	2.5545530913978496	5.515064	-63.385948	-29.177133	10.360145	-50.864651	11.529346	-25.418317	-59.459077	-2.538791	16.831893	-22.297087	12.773360	-37.784676	-20.449578	-13.658614	32.084801	-6.921742	5.076271	-24.434367	-5.986865	-30.123309	10.531651	-2.388018	11.345771	-10.162330	1.818399	-10.907393	33.796215	-5.189018	0.488096	-9.828214	-12.341812	-40.143727
146	2.5721706989247313	5.520133	-63.385847	-29.181127	10.380803	-50.869341	11.476598	-25.339793	-59.460611	-2.534259	16.814284	-22.281057	12.163990	-37.513782	-20.454228	-13.735627	32.048561	-6.925714	3.628259	-24.307999	-6.012912	-30.252171	10.531668	-2.388570	11.348715	-10.162932	1.818856	-10.910056	33.782932	-5.198802	-1.083900	-9.763525	-12.366240	-40.289818
147	2.589788306451613	5.246236	-63.395109	-29.188040	10.074002	-50.976420	11.442780	-25.441215	-59.506817	-2.552505	16.443488	-22.334447	12.126200	-37.537259	-20.456906	-13.876609	31.609341	-6.973474	3.452408	-24.394136	-6.034139	-30.325210	10.524267	-2.389552	11.360027	-10.155290	1.819719	-10.920602	33.393105	-5.212774	-1.277793	-9.876539	-12.373839	-40.333985
148	2.6074059139784946	5.108282	-63.380907	-29.228961	10.075483	-50.959450	11.431897	-25.468955	-59.496879	-2.543659	16.471021	-22.287070	12.104627	-37.501396	-20.410695	-13.840059	31.633727	-6.874676	3.748174	-24.133656	-5.689694	-30.184885	10.523754	-2.389648	11.363055	-10.155080	1.819689	-10.923154	33.425897	-5.128833	-0.921734	-9.631248	-11.946420	-40.167273
149	2.6250235215053763	5.105581	-63.367659	-28.953268	10.050750	-50.940068	11.794437	-25.470194	-59.465264	-2.386475	16.493143	-22.284806	12.440119	-37.269238	-20.367780	-13.844398	31.547120	-6.792930	4.104491	-23.933367	-5.661088	-30.401647	10.522702	-2.388484	11.381038	-10.154877	1.817650	-10.939146	33.223436	-4.935298	-0.549952	-9.456171	-11.912372	-40.435525
150	2.642641129032258	5.157220	-63.374594	-29.179870	10.020224	-50.961145	11.713329	-25.473740	-59.459106	-2.745185	16.512467	-22.376358	12.464130	-37.126328	-20.381034	-14.495359	31.589656	-6.805552	4.590381	-23.661284	-5.676279	-31.259217	10.522058	-2.396125	11.394980	-10.155085	1.823893	-10.950904	33.278080	-4.935623	0.040408	-9.147022	-11.921436	-41.377287
151	2.6602587365591397	5.163417	-63.450492	-28.775636	10.011348	-51.109652	11.840030	-25.471053	-59.558647	-2.668562	16.526992	-22.523489	12.531255	-36.919557	-20.571223	-14.461998	31.599855	-6.963837	4.623339	-23.490846	-5.727547	-31.241472	10.520265	-2.394878	11.398976	-10.154425	1.821953	-10.954850	33.282337	-5.028024	0.051255	-8.968870	-11.952518	-41.359102
152	2.6778763440860214	5.201770	-63.496896	-28.358766	10.030500	-51.132672	12.194361	-25.339590	-59.560407	-2.354369	16.490875	-22.520164	12.943914	-36.670680	-20.619648	-14.250195	31.641988	-6.967794	5.014821	-23.363297	-5.737824	-30.973323	10.518082	-2.394268	11.412020	-10.153148	1.821305	-10.967322	33.489002	-5.037127	0.427018	-8.865671	-11.974573	-41.087723
153	2.6954939516129035	5.203993	-63.508793	-28.376676	9.779523	-51.285334	12.163446	-25.340812	-59.532807	-2.766326	16.001844	-22.709481	12.904970	-36.702015	-20.615598	-14.662522	31.479798	-7.031229	4.958251	-23.300570	-5.745013	-31.135713	10.510950	-2.401693	11.441940	-10.147334	1.828445	-10.995108	33.424782	-5.047217	0.364472	-8.671449	-11.932407	-41.195494
154	2.713111559139785	5.175501	-63.485332	-28.499287	9.780694	-51.282672	12.116563	-25.365641	-59.523791	-2.751808	16.019145	-22.751650	12.931955	-36.613059	-20.574203	-14.651655	31.426598	-7.029138	5.075636	-23.127469	-5.526490	-31.042268	10.511504	-2.406382	11.456002	-10.148958	1.831768	-11.007737	33.211800	-5.029034	0.494535	-8.594959	-11.663173	-41.086108
155	2.730729166666667	5.161726	-63.484284	-27.084314	9.782103	-51.270739	13.134447	-25.367316	-59.563604	-1.607606	16.033773	-22.748602	13.737395	-36.279891	-20.634116	-14.145921	31.458767	-6.992131	5.825496	-22.563313	-5.544112	-30.893484	10.511561	-2.396813	11.457309	-10.150167	1.820676	-11.008670	33.259614	-4.856370	1.228956	-7.929090	-11.670321	-40.946406
156	2.7483467741935486	4.978544	-63.434643	-27.606612	9.680458	-51.261452	12.627821	-25.557521	-59.495701	-1.872960	16.047741	-22.751027	13.697174	-36.298140	-20.546024	-14.139327	31.448637	-6.938987	5.780579	-22.503793	-5.177592	-30.492822	10.514968	-2.400917	11.459015	-10.154971	1.824122	-11.010339	33.215626	-4.791195	1.211824	-7.929155	-11.201362	-40.473715
157	2.7659643817204302	4.881561	-63.380344	-27.520722	9.680176	-51.034543	12.680152	-25.628219	-59.359063	-1.542775	16.068602	-22.557114	13.627345	-36.124283	-20.393665	-13.758999	31.427308	-6.857299	5.759918	-22.290192	-5.073062	-30.160560	10.522359	-2.400074	11.458770	-10.165845	1.822210	-11.009807	33.143594	-4.723617	1.187350	-7.787857	-11.117018	-40.199135
158	2.783581989247312	5.122649	-63.603677	-27.196347	9.829947	-51.302709	12.900584	-25.408664	-59.545735	-1.468994	16.357875	-23.119458	13.726130	-35.611358	-20.777828	-13.642629	31.525810	-7.349194	5.835472	-21.451577	-5.518689	-29.749524	10.522238	-2.399388	11.474717	-10.166178	1.821445	-11.029400	33.182219	-5.026514	1.309850	-6.729930	-11.477956	-39.634367
159	2.8011995967741936	5.035026	-63.562489	-27.775133	9.518755	-51.450820	12.571726	-25.466693	-59.469468	-2.303934	15.847591	-23.422658	13.671823	-35.635260	-20.703955	-14.055646	31.005164	-7.426881	5.694450	-21.597216	-5.317280	-29.751577	10.519358	-2.424329	11.509515	-10.162757	1.847912	-11.060500	32.682860	-5.037517	1.153157	-6.912286	-11.085903	-39.586604
